<svg width="1312" height="1312" viewBox="0 0 1312 1312" fill="none" xmlns="http://www.w3.org/2000/svg">
<path d="M1012 120.907C1012 127 1010.6 133.561 1007.81 140.59C1005.02 147.152 1001.06 153.478 995.938 159.569C990.817 165.194 984.764 169.88 977.782 173.628C970.798 177.378 963.349 179.253 955.435 179.252C943.33 179.721 932.855 176.91 924.01 170.817C915.629 164.257 907.482 156.29 899.568 146.916C892.119 137.545 884.67 127.469 877.221 116.69C870.238 105.443 862.323 95.1333 853.478 85.7598C844.632 76.388 834.39 68.6556 822.751 62.5624C811.112 56.0025 797.145 52.7221 780.851 52.7212C758.504 52.722 740.813 57.6428 727.778 67.4831C715.207 77.3253 705.663 92.7902 699.146 113.878C692.628 134.498 688.438 160.976 686.576 193.311C685.179 225.647 684.481 264.544 684.481 310.001V356.395H849.288V407.008H684.481V997.485C684.481 1046.22 679.592 1087.7 669.816 1121.91C660.039 1156.12 647.469 1184.7 632.106 1207.67C617.208 1231.1 600.448 1249.61 581.826 1263.2C563.203 1276.79 545.047 1287.1 527.356 1294.13C509.664 1301.16 493.37 1305.61 478.472 1307.49C463.574 1309.83 452.401 1311 444.952 1311C424.467 1311 405.38 1307.72 387.689 1301.16C369.997 1294.6 354.634 1285.69 341.598 1274.45C328.097 1263.2 317.622 1250.31 310.173 1235.78C302.725 1221.26 299 1206.03 299 1190.09C299 1184 300.397 1177.44 303.19 1170.41C305.518 1163.85 309.242 1157.76 314.363 1152.13C319.019 1146.51 324.606 1141.82 331.123 1138.07C337.641 1134.33 344.857 1132.45 352.772 1132.45C368.135 1132.45 380.24 1135.5 389.085 1141.59C397.465 1148.15 403.983 1155.88 408.639 1164.79C413.76 1174.16 417.95 1184.23 421.209 1195.01C424.467 1206.26 428.425 1216.34 433.08 1225.24C438.201 1234.61 444.719 1242.35 452.634 1248.44C461.014 1255 472.885 1258.28 488.249 1258.28C505.009 1258.28 518.51 1253.36 528.752 1243.52C538.994 1233.68 546.909 1218.21 552.496 1197.12C558.548 1176.5 562.505 1149.79 564.367 1116.99C566.229 1084.65 567.16 1045.75 567.161 1000.3V407.008H442.159V356.395H567.161V312.812C567.16 264.544 572.747 223.304 583.921 189.093C595.094 154.415 609.293 125.594 626.519 102.631C644.21 79.1998 663.531 60.6889 684.481 47.0976C705.896 33.5082 726.613 23.1983 746.633 16.1678C766.651 9.13931 784.575 4.68732 800.405 2.81179C816.699 0.938262 828.57 0.000993351 836.02 0C856.038 0.000871361 876.523 3.2814 897.473 9.84126C918.423 16.4031 937.278 25.3071 954.038 36.5533C971.263 47.3328 985.23 60.2202 995.938 75.2155C1006.65 89.7441 1012 104.975 1012 120.907Z" fill="#E5E5E5"/>
</svg>
